#Comment line ignore any data following # character 
#Hierarchical Translation and Rotation (.htr) file 
[Header]	
#Header keywords are followed by a single value 
FileType HTR		#Single word string
DataType HTRS		#Translation followed by rotation and scale data
FileVersion 1		#integer
NumSegments 64		#integer
NumFrames 3		#integer
DataFrameRate 30		#integer, data frame rate in this file
EulerRotationOrder ZYX
CalibrationUnits mm
RotationUnits Degrees
GlobalAxisofGravity Y
BoneLengthAxis Y
ScaleFactor 1.00
[SegmentNames&Hierarchy]
#CHILD	PARENT
Pinger_Root GLOBAL
Pelvis Pinger_Root
L_Hip Pelvis
R_Hip Pelvis
Rear_Leg01 Pelvis
Spine1 Pelvis
L_Leg01 L_Hip
L_Leg02 L_Leg01
L_Leg03 L_Leg02
L_Foot L_Leg03
L_Toe1_01 L_Foot
L_Toe2_01 L_Foot
L_Toe3_01 L_Foot
planeAlignerLeft L_Foot
L_Toe1_02 L_Toe1_01
L_Toe1_03 L_Toe1_02
L_Toe2_02 L_Toe2_01
L_Toe2_03 L_Toe2_02
L_Toe3_02 L_Toe3_01
L_Toe3_03 L_Toe3_02
planeLockWeightLeft planeAlignerLeft
R_Leg01 R_Hip
R_Leg02 R_Leg01
R_Leg03 R_Leg02
R_Foot R_Leg03
planeAlignerRight R_Foot
R_Toe1_01 R_Foot
R_Toe2_01 R_Foot
R_Toe3_01 R_Foot
planeLockWeightRight planeAlignerRight
R_Toe1_02 R_Toe1_01
R_Toe1_03 R_Toe1_02
R_Toe2_02 R_Toe2_01
R_Toe2_03 R_Toe2_02
R_Toe3_02 R_Toe3_01
R_Toe3_03 R_Toe3_02
Rear_Leg02 Rear_Leg01
Rear_Leg03 Rear_Leg02
Rear_Leg04 Rear_Leg03
Rear_Foot Rear_Leg04
planeAlignerCenter Rear_Foot
Rear_Toe1_01 Rear_Foot
Rear_Toe2_01 Rear_Foot
Rear_Toe3_01 Rear_Foot
planeLockWeightCenter planeAlignerCenter
Rear_Toe1_02 Rear_Toe1_01
Rear_Toe1_03 Rear_Toe1_02
Rear_Toe2_02 Rear_Toe2_01
Rear_Toe2_03 Rear_Toe2_02
Rear_Toe3_02 Rear_Toe3_01
Rear_Toe3_03 Rear_Toe3_02
Back_Bone Spine1
Head Spine1
Motor_Bone Back_Bone
Ping_Mechanism Back_Bone
BN_LookIK Head
bottomMouth Head
L_Mouth01 Head
L_mouthFront Head
mouthGun Head
R_Mouth01 Head
R_mouthFront Head
TopMouth Head
weapon_bone Head
[BasePosition]
#SegmentName Tx, Ty, Tz, Rx, Ry, Rz, BoneLength
Pinger_Root 0.000000 0.000000 0.000000 -90.000000 0.000000 0.000000 10.000000 
Pelvis 0.000000 0.000000 0.000000 0.000000 0.000000 0.000000 10.000000 
L_Hip 0.000000 0.000000 0.000000 0.000000 0.000000 0.000000 10.000000 
R_Hip 0.000000 0.000000 0.000000 0.000000 0.000000 0.000000 10.000000 
Rear_Leg01 0.000000 0.000000 0.000000 0.000000 0.000000 0.000000 10.000000 
Spine1 0.000000 0.000000 0.000000 0.000000 0.000000 0.000000 10.000000 
L_Leg01 0.000000 0.000000 0.000000 0.000000 0.000000 0.000000 10.000000 
L_Leg02 0.000000 0.000000 0.000000 0.000000 0.000000 0.000000 10.000000 
L_Leg03 0.000000 0.000000 0.000000 0.000000 0.000000 0.000000 10.000000 
L_Foot 0.000000 0.000000 0.000000 0.000000 0.000000 0.000000 10.000000 
L_Toe1_01 0.000000 0.000000 0.000000 0.000000 0.000000 0.000000 10.000000 
L_Toe2_01 0.000000 0.000000 0.000000 0.000000 0.000000 0.000000 10.000000 
L_Toe3_01 0.000000 0.000000 0.000000 0.000000 0.000000 0.000000 10.000000 
planeAlignerLeft 0.000000 0.000000 0.000000 0.000000 0.000000 0.000000 10.000000 
L_Toe1_02 0.000000 0.000000 0.000000 0.000000 0.000000 0.000000 10.000000 
L_Toe1_03 0.000000 0.000000 0.000000 0.000000 0.000000 0.000000 10.000000 
L_Toe2_02 0.000000 0.000000 0.000000 0.000000 0.000000 0.000000 10.000000 
L_Toe2_03 0.000000 0.000000 0.000000 0.000000 0.000000 0.000000 10.000000 
L_Toe3_02 0.000000 0.000000 0.000000 0.000000 0.000000 0.000000 10.000000 
L_Toe3_03 0.000000 0.000000 0.000000 0.000000 0.000000 0.000000 10.000000 
planeLockWeightLeft 0.000000 0.000000 0.000000 0.000000 0.000000 0.000000 10.000000 
R_Leg01 0.000000 0.000000 0.000000 0.000000 0.000000 0.000000 10.000000 
R_Leg02 0.000000 0.000000 0.000000 0.000000 0.000000 0.000000 10.000000 
R_Leg03 0.000000 0.000000 0.000000 0.000000 0.000000 0.000000 10.000000 
R_Foot 0.000000 0.000000 0.000000 0.000000 0.000000 0.000000 10.000000 
planeAlignerRight 0.000000 0.000000 0.000000 0.000000 0.000000 0.000000 10.000000 
R_Toe1_01 0.000000 0.000000 0.000000 0.000000 0.000000 0.000000 10.000000 
R_Toe2_01 0.000000 0.000000 0.000000 0.000000 0.000000 0.000000 10.000000 
R_Toe3_01 0.000000 0.000000 0.000000 0.000000 0.000000 0.000000 10.000000 
planeLockWeightRight 0.000000 0.000000 0.000000 0.000000 0.000000 0.000000 10.000000 
R_Toe1_02 0.000000 0.000000 0.000000 0.000000 0.000000 0.000000 10.000000 
R_Toe1_03 0.000000 0.000000 0.000000 0.000000 0.000000 0.000000 10.000000 
R_Toe2_02 0.000000 0.000000 0.000000 0.000000 0.000000 0.000000 10.000000 
R_Toe2_03 0.000000 0.000000 0.000000 0.000000 0.000000 0.000000 10.000000 
R_Toe3_02 0.000000 0.000000 0.000000 0.000000 0.000000 0.000000 10.000000 
R_Toe3_03 0.000000 0.000000 0.000000 0.000000 0.000000 0.000000 10.000000 
Rear_Leg02 0.000000 0.000000 0.000000 0.000000 0.000000 0.000000 10.000000 
Rear_Leg03 0.000000 0.000000 0.000000 0.000000 0.000000 0.000000 10.000000 
Rear_Leg04 0.000000 0.000000 0.000000 0.000000 0.000000 0.000000 10.000000 
Rear_Foot 0.000000 0.000000 0.000000 0.000000 0.000000 0.000000 10.000000 
planeAlignerCenter 0.000000 0.000000 0.000000 0.000000 0.000000 0.000000 10.000000 
Rear_Toe1_01 0.000000 0.000000 0.000000 0.000000 0.000000 0.000000 10.000000 
Rear_Toe2_01 0.000000 0.000000 0.000000 0.000000 0.000000 0.000000 10.000000 
Rear_Toe3_01 0.000000 0.000000 0.000000 0.000000 0.000000 0.000000 10.000000 
planeLockWeightCenter 0.000000 0.000000 0.000000 0.000000 0.000000 0.000000 10.000000 
Rear_Toe1_02 0.000000 0.000000 0.000000 0.000000 0.000000 0.000000 10.000000 
Rear_Toe1_03 0.000000 0.000000 0.000000 0.000000 0.000000 0.000000 10.000000 
Rear_Toe2_02 0.000000 0.000000 0.000000 0.000000 0.000000 0.000000 10.000000 
Rear_Toe2_03 0.000000 0.000000 0.000000 0.000000 0.000000 0.000000 10.000000 
Rear_Toe3_02 0.000000 0.000000 0.000000 0.000000 0.000000 0.000000 10.000000 
Rear_Toe3_03 0.000000 0.000000 0.000000 0.000000 0.000000 0.000000 10.000000 
Back_Bone 0.000000 0.000000 0.000000 0.000000 0.000000 0.000000 10.000000 
Head 0.000000 0.000000 0.000000 0.000000 0.000000 0.000000 10.000000 
Motor_Bone 0.000000 0.000000 0.000000 0.000000 0.000000 0.000000 10.000000 
Ping_Mechanism 0.000000 0.000000 0.000000 0.000000 0.000000 0.000000 10.000000 
BN_LookIK 0.000000 0.000000 0.000000 0.000000 0.000000 0.000000 10.000000 
bottomMouth 0.000000 0.000000 0.000000 0.000000 0.000000 0.000000 10.000000 
L_Mouth01 0.000000 0.000000 0.000000 0.000000 0.000000 0.000000 10.000000 
L_mouthFront 0.000000 0.000000 0.000000 0.000000 0.000000 0.000000 10.000000 
mouthGun 0.000000 0.000000 0.000000 0.000000 0.000000 0.000000 10.000000 
R_Mouth01 0.000000 0.000000 0.000000 0.000000 0.000000 0.000000 10.000000 
R_mouthFront 0.000000 0.000000 0.000000 0.000000 0.000000 0.000000 10.000000 
TopMouth 0.000000 0.000000 0.000000 0.000000 0.000000 0.000000 10.000000 
weapon_bone 0.000000 0.000000 0.000000 0.000000 0.000000 0.000000 10.000000 
#Beginning of Data. Separated by tabs
#Fr	Tx	Ty	Tz	Rx	Ry	Rz	SF
[Pinger_Root]
42 -5314.812500 0.000000 0.000000 -0.000075 -0.000000 -0.000020 5314.812500
43 -5444.442383 0.000000 0.000000 -0.000075 -0.000000 -0.000020 5444.442383
44 -5574.071777 0.000000 0.000000 -0.000075 -0.000000 -0.000020 5574.071777
[Pelvis]
42 -589.863403 480.867828 5124.865723 -105.694374 -76.090767 163.176666 5181.063477
43 -614.936951 489.689575 5065.438477 -107.567345 -73.316032 162.006851 5126.071289
44 -641.299316 508.793182 5013.691895 -109.769821 -71.314606 161.394073 5080.083008
[L_Hip]
42 5.766392 125.831482 872.656799 -178.250168 -81.786369 87.376007 881.701050
43 5.766392 125.831482 872.656799 -178.250168 -81.786369 87.376007 881.701050
44 5.766392 125.831482 872.656799 -178.250168 -81.786369 87.376007 881.701050
[R_Hip]
42 5.765438 125.836372 -872.654907 -1.748770 81.786041 87.376961 881.699829
43 5.765438 125.836372 -872.654907 -1.748770 81.786041 87.376961 881.699829
44 5.765438 125.836372 -872.654907 -1.748770 81.786041 87.376961 881.699829
[Rear_Leg01]
42 -192.298416 -925.602966 -0.001907 -160.920853 16.930145 -164.525238 945.367432
43 -192.298416 -925.602966 -0.001907 -162.765961 18.217628 -166.155106 945.367432
44 -192.298416 -925.602966 -0.001907 -164.339340 19.311192 -166.877655 945.367432
[Spine1]
42 290.604584 5.007505 0.000477 -44.905140 25.361214 7.597548 290.647736
43 290.604584 5.007505 0.000477 -41.578903 24.971563 5.710930 290.647736
44 290.604584 5.007505 0.000477 -38.489582 24.695704 4.486629 290.647736
[L_Leg01]
42 761.932007 -0.002384 -0.069261 52.893494 -37.788296 -26.371305 761.932068
43 761.932007 -0.002384 -0.069261 51.732346 -38.106220 -26.395966 761.932068
44 761.932007 -0.002384 -0.069261 60.695118 -29.929152 -38.481213 761.932068
[L_Leg02]
42 1441.140503 -0.000954 -0.000715 3.416111 -0.446166 -142.825150 1441.140503
43 1441.140503 -0.000954 -0.000715 1.010692 -0.225588 -129.641754 1441.140503
44 1441.140503 -0.000954 -0.000715 -1.416283 0.684479 -97.659775 1441.140503
[L_Leg03]
42 1686.963989 -0.000715 -0.000954 -0.014070 0.006586 114.153099 1686.963989
43 1686.963989 -0.000715 -0.000954 0.019188 -0.006107 105.309425 1686.963989
44 1686.963989 -0.000715 -0.000954 0.061474 -0.012257 93.285103 1686.963989
[L_Foot]
42 3041.570068 -30.715107 11.297464 -23.394554 5.832266 89.626556 3041.746094
43 3041.570068 -30.715107 11.297464 -26.917295 6.490910 78.870361 3041.746094
44 3041.570068 -30.715107 11.297464 -32.741047 6.483053 60.645428 3041.746094
[L_Toe1_01]
42 -188.216690 -224.732346 -21.137953 88.706398 -1.786609 -139.677002 293.899567
43 -188.216690 -224.732346 -21.137953 89.041458 -2.032872 -151.330872 293.899567
44 -188.216690 -224.732346 -21.137953 89.233749 -2.123807 -157.877930 293.899567
[L_Toe2_01]
42 200.746536 -219.926590 148.838394 -73.929466 -3.614537 -71.727211 332.896027
43 200.746536 -219.926590 148.838394 -75.313110 -6.634275 -61.258152 332.896027
44 200.746536 -219.926590 148.838394 -76.712166 -8.894033 -53.170143 332.896027
[L_Toe3_01]
42 188.832520 -219.859131 -191.078659 -110.448608 4.306504 -72.801888 347.140900
43 188.832520 -219.859131 -191.078659 -108.816475 8.104111 -62.691540 347.140900
44 188.832520 -219.859131 -191.078659 -107.223381 10.826004 -55.312725 347.140900
[planeAlignerLeft]
42 136.011810 -757.602417 -11.022026 0.000000 -90.000000 -90.001900 769.793518
43 130.174652 -752.273315 -6.911073 0.000000 -90.000000 -90.001900 763.484314
44 113.062386 -749.299500 -0.023298 0.000000 -90.000000 -90.001900 757.781555
[L_Toe1_02]
42 413.761139 0.000477 0.000000 0.001479 -15.076690 0.001479 413.761139
43 413.761139 0.000477 0.000000 0.001460 -16.974566 0.001460 413.761139
44 413.761139 0.000477 0.000000 0.001424 -20.961039 0.001424 413.761139
[L_Toe1_03]
42 464.317322 0.000358 -0.000089 -179.997635 74.038864 -179.994095 464.317322
43 464.317322 0.000358 -0.000089 -179.995392 79.651360 -179.991882 464.317322
44 464.317322 0.000358 -0.000089 0.043953 86.939957 0.043953 464.317322
[L_Toe2_02]
42 342.235809 -0.000477 0.000238 0.001181 -77.443008 0.001181 342.235809
43 342.235809 -0.000477 0.000238 0.001185 -74.388252 0.001185 342.235809
44 342.235809 -0.000477 0.000238 0.001202 -64.891273 0.001202 342.235809
[L_Toe2_03]
42 420.210846 -0.000715 0.000000 -179.996078 78.407707 -179.992554 420.210846
43 420.210846 -0.000715 0.000000 -179.929779 89.084862 -179.926285 420.210846
44 420.210846 -0.000715 0.000000 -0.001414 69.250771 -0.004969 420.210846
[L_Toe3_02]
42 329.270111 0.000954 0.000000 0.001177 -81.149315 0.001177 329.270111
43 329.270111 0.000954 0.000000 0.001180 -78.454552 0.001180 329.270111
44 329.270111 0.000954 0.000000 -0.010873 -70.434761 0.009706 329.270111
[L_Toe3_03]
42 439.137451 -0.001907 0.000954 -179.997086 75.908730 -179.993561 439.137451
43 439.137451 -0.001907 0.000954 -179.986069 85.800072 -179.982559 439.137451
44 439.137451 -0.001907 0.000954 -0.002458 74.355438 -0.005988 439.137451
[planeLockWeightLeft]
42 647.995361 0.097656 0.075836 -0.011826 -0.004376 0.005620 647.995361
43 895.996216 0.098267 0.076141 -0.011826 -0.004376 0.005620 895.996216
44 999.998108 0.098267 0.076170 -0.011826 -0.004376 0.005620 999.998108
[R_Leg01]
42 761.455627 -0.001907 -0.000358 140.112869 -36.971729 69.778969 761.455688
43 761.455627 -0.001907 -0.000358 141.824661 -43.568680 64.682571 761.455688
44 761.455627 -0.001907 -0.000358 143.326935 -48.533760 60.441807 761.455688
[R_Leg02]
42 1441.140625 0.000000 -0.000238 0.170973 -0.024593 -104.626213 1441.140625
43 1441.140625 0.000000 -0.000238 0.144214 -0.045704 -111.921333 1441.140625
44 1441.140625 0.000000 -0.000238 0.111150 -0.058425 -117.026779 1441.140625
[R_Leg03]
42 1686.963989 0.000954 0.001431 -0.021506 0.006281 104.604660 1686.963989
43 1686.963989 0.000954 0.001431 -0.024625 0.009960 103.513046 1686.963989
44 1686.963989 0.000954 0.001431 -0.031718 0.010360 101.961937 1686.963989
[R_Foot]
42 3041.560059 -30.531288 -11.204481 -2.200635 -5.829029 59.190193 3041.734131
43 3041.560059 -30.531288 -11.204481 -1.061479 -5.627877 61.405251 3041.734131
44 3041.560059 -30.531288 -11.204481 0.084291 -5.470715 63.623226 3041.734131
[planeAlignerRight]
42 8.038105 -776.309937 2.561984 0.000000 -89.960434 -90.005180 776.355774
43 3.655768 -795.154602 0.846279 0.000000 -89.960434 -90.005180 795.163452
44 0.690353 -807.643494 -0.280439 0.000000 -89.960434 -90.005180 807.643799
[R_Toe1_01]
42 -188.383347 -224.864899 21.052242 90.956764 1.732400 -152.629013 294.101532
43 -188.383347 -224.864899 21.052242 91.032707 1.776823 -150.845383 294.101532
44 -188.383347 -224.864899 21.052242 91.049225 1.806237 -149.625092 294.101532
[R_Toe2_01]
42 200.637817 -220.002121 -148.787384 -104.213440 9.616873 -56.005077 332.857574
43 200.637817 -220.002121 -148.787384 -104.522614 9.432932 -57.440567 332.857574
44 200.637817 -220.002121 -148.787384 -104.687988 9.322068 -58.274410 332.857574
[R_Toe3_01]
42 188.606735 -220.092957 191.126343 -71.402260 -12.115829 -58.017296 347.192566
43 188.606735 -220.092957 191.126343 -71.113724 -11.652447 -59.411816 347.192566
44 188.606735 -220.092957 191.126343 -70.945999 -11.384548 -60.231731 347.192566
[planeLockWeightRight]
42 999.999695 -0.000137 0.076232 -0.011823 -0.004379 -0.000027 999.999695
43 999.999695 -0.000126 0.076226 -0.011823 -0.004379 -0.000027 999.999695
44 999.999695 -0.000116 0.076220 -0.011823 -0.004379 -0.000027 999.999695
[R_Toe1_02]
42 413.762085 0.000477 -0.000119 0.001394 -24.679718 0.001394 413.762085
43 413.762085 0.000477 -0.000119 0.001392 -24.931355 0.001392 413.762085
44 413.762085 0.000477 -0.000119 0.001390 -25.182983 0.001390 413.762085
[R_Toe1_03]
42 464.317810 0.000000 0.001088 0.006591 69.485031 0.006591 464.317810
43 464.317810 0.000000 0.001088 0.005781 66.573265 0.005781 464.317810
44 464.317810 0.000000 0.001088 0.005322 64.520393 0.005322 464.317810
[R_Toe2_02]
42 342.234741 -0.000954 0.000238 0.000480 -71.614052 0.000480 342.234741
43 342.234741 -0.000954 0.000238 0.001190 -70.816475 0.001190 342.234741
44 342.234741 -0.000954 0.000238 0.001191 -70.471367 0.001191 342.234741
[R_Toe2_03]
42 420.210846 0.000715 -0.000268 0.020205 83.340057 0.020204 420.210846
43 420.210846 0.000715 -0.000268 0.015884 81.525368 0.015884 420.210846
44 420.210846 0.000715 -0.000268 0.013858 80.284027 0.013858 420.210846
[R_Toe3_02]
42 329.270355 -0.000477 -0.000954 0.001183 -75.857178 0.001183 329.270355
43 329.270355 -0.000477 -0.000954 0.001183 -75.203720 0.001183 329.270355
44 329.270355 -0.000477 -0.000954 0.001184 -74.932709 0.001184 329.270355
[R_Toe3_03]
42 439.137939 0.000238 0.001431 -0.020928 86.565384 -0.017430 439.137939
43 439.137939 0.000238 0.001431 -0.015067 85.053001 -0.011567 439.137939
44 439.137939 0.000238 0.001431 -0.012752 84.010376 -0.009250 439.137939
[Rear_Leg02]
42 1162.777710 -0.029802 0.005960 -2.088049 -4.747330 -68.502304 1162.777710
43 1162.777710 -0.029802 0.005960 -2.617538 -4.676805 -62.137531 1162.777710
44 1162.777710 -0.029802 0.005960 -3.223325 -4.500679 -54.808784 1162.777710
[Rear_Leg03]
42 607.192505 -0.013351 -0.073195 0.008753 0.003260 49.151672 607.192505
43 607.192505 -0.013351 -0.073195 0.004127 0.005417 46.387653 607.192505
44 607.192505 -0.013351 -0.073195 0.003968 0.005535 43.066513 607.192505
[Rear_Leg04]
42 995.874512 -0.020504 -0.011921 -0.033321 -0.014378 32.246166 995.874573
43 995.874512 -0.020504 -0.011921 -0.031583 -0.010764 28.147921 995.874573
44 995.874512 -0.020504 -0.011921 -0.031115 -0.012050 23.444290 995.874573
[Rear_Foot]
42 3096.176270 -0.067472 -0.041425 -11.004877 64.643181 -179.366272 3096.176270
43 3096.176270 -0.067472 -0.041425 -10.674891 63.063293 -176.853088 3096.176270
44 3096.176270 -0.067472 -0.041425 -10.424440 61.615192 -174.041229 3096.176270
[planeAlignerCenter]
42 1.098385 109.419952 -779.560852 0.000009 0.000003 -179.999985 787.203308
43 1.090775 113.711021 -797.695190 0.000009 0.000003 -179.999985 805.759827
44 1.082916 115.898254 -809.649963 0.000009 0.000003 -179.999985 817.903748
[Rear_Toe1_01]
42 0.653352 83.966492 -371.173737 0.061707 28.293554 90.034874 380.553192
43 0.653352 83.966492 -371.173737 0.062409 29.714731 90.035149 380.553192
44 0.653352 83.966492 -371.173737 0.058104 30.587591 90.031227 380.553192
[Rear_Toe2_01]
42 178.200760 -294.826019 -362.060547 1.775103 52.088116 -68.678848 499.765686
43 178.200760 -294.826019 -362.060547 1.938967 53.411720 -68.490341 499.765686
44 178.200760 -294.826019 -362.060547 2.065687 54.254402 -68.367516 499.765686
[Rear_Toe3_01]
42 -153.359680 -308.780914 -362.060852 -2.150674 52.078201 -113.962013 499.952881
43 -153.359680 -308.780914 -362.060852 -2.347661 53.397560 -114.183701 499.952881
44 -153.359680 -308.780914 -362.060852 -2.436804 54.237553 -114.294128 499.952881
[planeLockWeightCenter]
42 1000.000122 0.000037 0.076037 -0.011814 -0.004373 -0.000015 1000.000122
43 1000.000122 0.000025 0.076027 -0.011814 -0.004373 -0.000015 1000.000122
44 1000.000122 0.000012 0.076018 -0.011814 -0.004373 -0.000015 1000.000122
[Rear_Toe1_02]
42 379.707825 0.194073 0.000477 -0.000767 -33.624729 0.000838 379.707855
43 379.707825 0.194073 0.000477 -0.000767 -33.624729 0.000838 379.707855
44 379.707825 0.194073 0.000477 -0.000767 -33.624729 0.000838 379.707855
[Rear_Toe1_03]
42 500.129700 0.165701 0.000119 -0.001633 58.239605 0.003822 500.129761
43 500.129700 0.165701 0.000119 0.000280 55.366211 0.007605 500.129761
44 500.129700 0.165701 0.000119 0.000051 53.364670 0.007418 500.129761
[Rear_Toe2_02]
42 340.494507 0.000238 -0.000954 0.001175 -84.608025 0.001175 340.494507
43 340.494507 0.000238 -0.000954 0.001175 -84.160782 0.001175 340.494507
44 340.494507 0.000238 -0.000954 0.001175 -83.713470 0.001175 340.494507
[Rear_Toe2_03]
42 433.103577 0.000000 0.000238 179.982666 82.231476 179.982666 433.103546
43 433.103577 0.000000 0.000238 179.979492 83.439323 179.979492 433.103546
44 433.103577 0.000000 0.000238 179.976273 84.330261 179.976273 433.103546
[Rear_Toe3_02]
42 340.494141 -0.000358 -0.000477 0.001175 -84.414162 0.001175 340.494171
43 340.494141 -0.000358 -0.000477 0.001175 -83.994133 0.001175 340.494171
44 340.494141 -0.000358 -0.000477 0.001175 -83.574097 0.001175 340.494171
[Rear_Toe3_03]
42 433.103577 0.001431 -0.000238 -179.992905 82.556870 -179.989395 433.103546
43 433.103577 0.001431 -0.000238 -179.991165 83.771057 -179.987671 433.103546
44 433.103577 0.001431 -0.000238 -179.989395 84.670975 -179.985886 433.103546
[Back_Bone]
42 1312.175781 -701.934692 0.000954 1.019727 3.184313 -80.531158 1488.125488
43 1312.175781 -701.934692 0.000954 0.692627 3.184909 -80.348091 1488.125488
44 1312.175781 -701.934692 0.000954 0.365533 3.186547 -80.165024 1488.125488
[Head]
42 1406.159424 809.709290 0.001431 -5.592967 6.108685 3.472198 1622.625488
43 1406.159424 809.709290 0.001431 -5.911643 6.359264 4.016467 1622.625488
44 1406.159424 809.709290 0.001431 -6.228065 6.612835 4.559585 1622.625488
[Motor_Bone]
42 1158.364380 -417.834747 0.000477 1.113721 -1.125686 -107.115891 1231.419434
43 1158.364380 -417.834747 0.000477 -1.034866 -1.069922 -107.053192 1231.419434
44 1158.364380 -417.834747 0.000477 -2.188870 -0.972377 -106.959076 1231.419434
[Ping_Mechanism]
42 1246.153809 -444.894073 -60.985222 0.000103 -0.000053 82.120995 1324.593994
43 1255.412109 -446.522186 -73.310364 0.000103 -0.000053 82.120995 1334.472168
44 1262.396118 -446.658936 -80.892220 0.000103 -0.000053 82.120995 1341.525879
[BN_LookIK]
42 193.241119 1380.371704 -0.002861 0.000000 89.965736 -31.038179 1393.832153
43 193.241119 1380.371704 -0.002861 0.000000 89.965736 -31.038179 1393.832153
44 193.241119 1380.371704 -0.002861 0.000000 89.965736 -31.038179 1393.832153
[bottomMouth]
42 -435.092926 615.759399 -0.000954 -0.000022 0.000016 73.527184 753.966492
43 -435.092926 615.759399 -0.000954 -0.000022 0.000016 73.527184 753.966492
44 -435.092926 615.759399 -0.000954 -0.000022 0.000016 73.527184 753.966492
[L_Mouth01]
42 554.440979 7.658243 838.222046 150.204178 23.759130 109.605339 1005.027161
43 554.440979 7.658243 838.222046 150.204178 23.759130 109.605339 1005.027161
44 554.440979 7.658243 838.222046 150.204178 23.759130 109.605339 1005.027161
[L_mouthFront]
42 551.629089 934.514771 339.150421 0.000081 2.804060 79.119301 1136.941284
43 551.629089 934.514771 339.150421 0.000081 2.804060 79.119301 1136.941284
44 551.629089 934.514771 339.150421 0.000081 2.804060 79.119301 1136.941284
[mouthGun]
42 55.332661 1627.420898 0.000000 0.000023 0.000009 -11.038128 1628.361328
43 55.332661 1627.420898 0.000000 0.000023 0.000009 -11.038128 1628.361328
44 55.332661 1627.420898 0.000000 0.000023 0.000009 -11.038128 1628.361328
[R_Mouth01]
42 554.442383 7.659197 -838.223938 29.795891 -23.759109 109.605331 1005.029541
43 554.442383 7.659197 -838.223938 29.795891 -23.759109 109.605331 1005.029541
44 554.442383 7.659197 -838.223938 29.795891 -23.759109 109.605331 1005.029541
[R_mouthFront]
42 551.629089 934.514282 -339.151367 0.000029 -2.803930 79.119133 1136.941162
43 551.629089 934.514282 -339.151367 0.000029 -2.803930 79.119133 1136.941162
44 551.629089 934.514282 -339.151367 0.000029 -2.803930 79.119133 1136.941162
[TopMouth]
42 461.269867 -56.106091 -0.008583 -0.000059 -0.000268 92.025169 464.669525
43 461.269867 -56.106091 -0.008583 -0.000059 -0.000268 92.025169 464.669525
44 461.269867 -56.106091 -0.008583 -0.000059 -0.000268 92.025169 464.669525
[weapon_bone]
42 -987.239868 1448.372803 0.001431 0.000000 89.965736 -31.038221 1752.833740
43 -987.239868 1448.372803 0.001431 0.000000 89.965736 -31.038221 1752.833740
44 -987.239868 1448.372803 0.001431 0.000000 89.965736 -31.038221 1752.833740
